<?xml version="1.0" standalone="no"?>
<!DOCTYPE svg PUBLIC "-//W3C//DTD SVG 1.1//EN" "http://www.w3.org/Graphics/SVG/1.1/DTD/svg11.dtd" >
<svg xmlns="http://www.w3.org/2000/svg">
<metadata>Generated by IcoMoon</metadata>
<defs>
<font id="icomoon" horiz-adv-x="1024">
<font-face units-per-em="1024" ascent="960" descent="-64" />
<missing-glyph horiz-adv-x="1024" />
<glyph unicode="&#x20;" d="" horiz-adv-x="512" />
<glyph unicode="&#xe600;" d="M512 961.707c-281.6 0-506.88-204.8-506.88-453.973 0-158.72 124.587-285.013 281.6-285.013h100.693c63.147 0 85.333-39.253 85.333-85.333 0-22.187-11.947-39.253-22.187-56.32-17.067-17.067-22.187-34.133-22.187-56.32 0-46.080 39.253-85.333 85.333-85.333 281.6 0 506.88 226.987 506.88 512-1.707 283.307-226.987 510.293-508.587 510.293zM184.32 420.693c-39.253 0-71.68 32.427-71.68 71.68s32.427 71.68 71.68 71.68c39.253 0 71.68-32.427 71.68-71.68s-32.427-71.68-71.68-71.68zM332.8 669.867c-39.253 0-71.68 32.427-71.68 71.68s32.427 71.68 71.68 71.68c39.253 0 71.68-32.427 71.68-71.68s-30.72-71.68-71.68-71.68zM636.587 680.107c-39.253 0-71.68 32.427-71.68 71.68s32.427 71.68 71.68 71.68c39.253 0 71.68-32.427 71.68-71.68 1.707-39.253-30.72-71.68-71.68-71.68z" />
<glyph unicode="&#xe601;" d="M952.32 519.68h-795.307c-39.253 0-69.973-30.72-69.973-69.973v-267.947c0-39.253 30.72-69.973 69.973-69.973h793.6c39.253 0 69.973 30.72 69.973 69.973v267.947c1.707 39.253-30.72 69.973-68.267 69.973zM964.267 239.787c0-39.253-30.72-69.973-69.973-69.973h-675.84c-39.253 0-69.973 30.72-69.973 69.973v151.893c0 39.253 30.72 69.973 69.973 69.973h677.547c39.253 0 69.973-30.72 69.973-69.973v-151.893zM863.573 432.64h-614.4c-39.253 0-71.68-34.133-71.68-78.507v-76.8c0-42.667 32.427-78.507 71.68-78.507h614.4c39.253 0 71.68 34.133 71.68 78.507v78.507c0 42.667-32.427 76.8-71.68 76.8zM554.667 243.2c-40.96 0-73.387 32.427-73.387 73.387s32.427 73.387 73.387 73.387c40.96 0 73.387-32.427 73.387-73.387s-32.427-73.387-73.387-73.387zM204.8 545.28l546.133 218.453c35.84 13.653 76.8-3.413 90.453-39.253l56.32-141.653c5.12-11.947 5.12-23.893 3.413-35.84h71.68c0 1.707 0 1.707-1.707 3.413l-97.28 249.173c-13.653 35.84-54.613 52.907-90.453 39.253l-738.987-293.547c-35.84-13.653-52.907-54.613-39.253-90.453l59.733-150.187v170.667c0 39.253 34.133 69.973 76.8 69.973h63.147zM732.16 724.48l-448.853-179.2h146.773c8.533 10.24 18.773 18.773 30.72 23.893 30.72 11.947 66.56 1.707 85.333-23.893h310.613c6.827 18.773 8.533 39.253 0 59.733l-29.013 71.68c-15.36 40.96-58.027 61.44-95.573 47.787z" />
<glyph unicode="&#xe602;" d="M641.707 110.080c75.093 18.773 151.893 85.333 151.893 85.333 165.547 145.067 194.56 387.413 76.8 564.907-6.827 10.24-17.067 17.067-29.013 18.773s-23.893-1.707-34.133-10.24l-262.827-228.693-58.027-49.493-261.12-230.4c-8.533-8.533-15.36-20.48-15.36-32.427s5.12-23.893 13.653-32.427c117.76-102.4 281.6-131.413 418.133-85.333zM752.64 98.133c-61.44-34.133-174.080-66.56-264.533-54.613-32.427-18.773-59.733-58.027-63.147-95.573 0-3.413 0-10.24 8.533-10.24s373.76 0 428.373 0c5.12 0 6.827 5.12 6.827 6.827-3.413 63.147-52.907 124.587-116.053 153.6zM503.467 596.48c0-32.99-26.744-59.733-59.733-59.733s-59.733 26.744-59.733 59.733c0 32.99 26.744 59.733 59.733 59.733s59.733-26.744 59.733-59.733zM488.107 739.84c8.533 8.533 11.947 17.067 11.947 29.013 0 10.24-3.413 20.48-11.947 29.013s-17.067 11.947-29.013 11.947c-32.427 0-61.44-6.827-88.747-18.773s-51.2-29.013-73.387-49.493c-20.48-20.48-37.547-44.373-49.493-73.387-11.947-27.307-18.773-58.027-18.773-88.747 0-10.24 3.413-20.48 11.947-29.013s17.067-11.947 29.013-11.947c10.24 0 20.48 3.413 29.013 11.947s11.947 17.067 11.947 29.013c0 20.48 3.413 39.253 11.947 58.027s18.773 34.133 32.427 47.787c13.653 13.653 29.013 23.893 47.787 32.427s37.547 11.947 58.027 11.947c10.24-1.707 18.773 3.413 27.307 10.24zM307.2 838.827c22.187 13.653 46.080 23.893 71.68 30.72s52.907 10.24 80.213 10.24c10.24 0 20.48 3.413 29.013 11.947s11.947 17.067 11.947 29.013c0 10.24-3.413 20.48-11.947 29.013s-17.067 11.947-29.013 11.947c-34.133 0-68.267-5.12-100.693-13.653s-63.147-22.187-90.453-39.253c-29.013-17.067-54.613-35.84-76.8-59.733-23.893-23.893-42.667-49.493-59.733-76.8-17.067-29.013-29.013-58.027-39.253-90.453-8.533-32.427-13.653-66.56-13.653-100.693 0-10.24 3.413-20.48 11.947-29.013s17.067-11.947 29.013-11.947c10.24 0 20.48 3.413 29.013 11.947s11.947 17.067 11.947 29.013c0 27.307 3.413 54.613 10.24 80.213s17.067 49.493 30.72 71.68c13.653 22.187 29.013 42.667 47.787 61.44 17.067 15.36 35.84 30.72 58.027 44.373z" />
<glyph unicode="&#xe603;" d="M1024 504.32v44.373c0 5.12-3.413 10.24-8.533 11.947l-189.44 66.56c-8.533 3.413-11.947 15.36-5.12 22.187 15.36 13.653 25.6 34.133 27.307 58.027 1.707 42.667-34.133 80.213-76.8 80.213-44.373 1.707-81.92-34.133-81.92-78.507 0-23.893 10.24-44.373 25.6-59.733 6.827-6.827 5.12-18.773-3.413-22.187l-199.68-69.973v-1.707l-197.973 69.973c-8.533 3.413-11.947 15.36-5.12 22.187 15.36 13.653 25.6 34.133 27.307 58.027 1.707 42.667-34.133 80.213-76.8 80.213-44.373 1.707-81.92-34.133-81.92-78.507 0-23.893 10.24-44.373 25.6-59.733 6.827-6.827 5.12-18.773-3.413-22.187l-191.147-64.853c-5.12-3.413-8.533-6.827-8.533-13.653v-44.373c0-8.533 8.533-15.36 17.067-11.947l129.707 46.080c10.24 3.413 20.48-6.827 17.067-17.067l-93.867-245.76c-3.413-8.533 3.413-17.067 11.947-17.067h22.187c8.533 0 15.36-8.533 11.947-17.067l-40.96-110.933c-3.413-8.533 3.413-17.067 11.947-17.067h51.2c5.12 0 10.24 3.413 11.947 8.533l44.373 129.707c1.707 5.12 6.827 8.533 11.947 8.533h92.16c5.12 0 10.24-3.413 11.947-8.533l44.373-129.707c1.707-5.12 6.827-8.533 11.947-8.533h51.2c8.533 0 15.36 8.533 11.947 17.067l-40.96 110.933c-3.413 8.533 3.413 17.067 11.947 17.067h22.187c8.533 0 15.36 8.533 11.947 17.067l-104.107 273.067 180.907-61.44v1.707l174.080 61.44c8.533 3.413 17.067-3.413 17.067-11.947v-90.453c0-1.707 0-3.413 0-5.12l-114.347-312.32c-3.413-8.533 3.413-17.067 11.947-17.067h63.147c5.12 0 10.24 3.413 11.947 8.533l78.507 199.68c5.12 11.947 20.48 11.947 23.893 0l78.507-199.68c1.707-5.12 6.827-8.533 11.947-8.533h63.147c8.533 0 15.36 8.533 11.947 17.067l-114.347 312.32c0 1.707 0 3.413 0 5.12v90.453c0 8.533 8.533 15.36 17.067 11.947l157.013-56.32c11.947-3.413 20.48 3.413 20.48 11.947z" />
<glyph unicode="&#xe604;" d="M629.76 736.427c-20.48 11.947-49.493 0-66.56-61.44-11.947-42.667-46.080-112.64-92.16-186.027-64.853 27.307-186.027 30.72-194.56 11.947-3.413-8.533-29.013-81.92 20.48-75.093 29.013 5.12 75.093-10.24 116.053-27.307-78.507-112.64-162.133-204.8-182.613-165.547-3.413 6.827-35.84 13.653 8.533-136.533 37.547-129.707 61.44-162.133 134.827-160.427 46.080 0 73.387 27.307 104.107 177.493s5.12 155.307 83.627 267.947c37.547 52.907 51.2 35.84 150.187 148.48 104.107 121.173-81.92 206.507-81.92 206.507zM808.96 842.24c-1.707 6.827-29.013 10.24-30.72 18.773s35.84 87.040 29.013 95.573c-13.653 18.773-46.080-66.56-228.693-64.853-191.147 11.947-238.933-56.32-233.813-64.853 6.827-8.533 27.307-11.947 30.72-22.187 3.413-11.947-35.84-88.747-29.013-92.16 8.533-3.413 47.787 66.56 228.693 64.853 175.787-3.413 235.52 52.907 233.813 64.853z" />
<glyph unicode="&#xe605;" d="M69.973 255.147l-69.973-273.067 124.587 124.587c-6.827 22.187-1.707 46.080 15.36 63.147 23.893 23.893 64.853 23.893 88.747 0s23.893-63.147 0-88.747c-17.067-17.067-40.96-22.187-63.147-15.36l-124.587-124.587 273.067 69.973c10.24 3.413 18.773 11.947 22.187 22.187l23.893 126.293c1.707 10.24-1.707 18.773-8.533 25.6l-105.813 105.813c0 0 0 0 0 0-6.827 6.827-17.067 10.24-25.6 8.533l-126.293-22.187c-11.947-1.707-20.48-10.24-23.893-22.187zM933.547 951.467c5.12 5.12 13.653 5.12 18.773 0l66.56-66.56c5.12-5.12 5.12-13.653 0-18.773l-587.093-665.6c-5.12-5.12-13.653-5.12-18.773 0l-145.067 145.067c-5.12 5.12-5.12 13.653 0 18.773l665.6 587.093z" />
<glyph unicode="&#xe606;" d="M327.68 768.853l336.213 47.787c39.253 5.12 66.56 42.667 61.44 81.92s-42.667 66.56-81.92 61.44l-336.213-47.787c-39.253-5.12-66.56-42.667-61.44-81.92s42.667-66.56 81.92-61.44zM216.747 535.040l609.28 85.333c39.253 5.12 66.56 42.667 61.44 81.92s-42.667 66.56-81.92 61.44l-609.28-85.333c-37.547-6.827-64.853-42.667-59.733-81.92s40.96-66.56 80.213-61.44zM790.187 541.867l-529.067-75.093c-35.84-5.12-61.44-35.84-61.44-69.973-1.707-23.893 8.533-47.787 29.013-63.147l119.467-88.747 23.893-143.36c27.307-139.947 73.387-163.84 163.84-163.84s133.12 22.187 163.84 163.84l30.72 180.907v1.707h-192.853l-87.040 64.853 360.107 51.2c39.253 5.12 66.56 42.667 61.44 81.92-5.12 37.547-42.667 64.853-81.92 59.733z" />
<glyph unicode="&#xe607;" d="M682.667 362.667c0 3.413-1.707 5.12-1.707 8.533l69.973 30.72c10.24 5.12 15.36 15.36 10.24 25.6l-22.187 58.027c-3.413 10.24-15.36 15.36-25.6 11.947l-56.32-17.067c-8.533-3.413-17.067 0-22.187 8.533-23.893 34.133-52.907 63.147-88.747 85.333-6.827 5.12-10.24 13.653-8.533 22.187l15.36 58.027c3.413 10.24-3.413 22.187-13.653 25.6l-59.733 18.773c-10.24 3.413-22.187-1.707-25.6-11.947l-22.187-56.32c-3.413-8.533-11.947-13.653-20.48-13.653-20.48 1.707-42.667 1.707-64.853-1.707-20.48-3.413-39.253-6.827-56.32-13.653-8.533-3.413-17.067 0-23.893 6.827l-35.84 47.787c-6.827 8.533-18.773 10.24-27.307 5.12l-52.907-34.133c-8.533-5.12-11.947-17.067-6.827-27.307l29.013-51.2c5.12-8.533 3.413-17.067-3.413-23.893-29.013-30.72-49.493-66.56-64.853-105.813-3.413-8.533-11.947-13.653-20.48-13.653l-59.733 3.413c-10.24 0-20.48-6.827-20.48-18.773l-6.827-61.44c-1.707-10.24 6.827-20.48 17.067-22.187l59.733-8.533c8.533-1.707 15.36-8.533 17.067-17.067 0 0 0 0 0 0 5.12-42.667 20.48-81.92 40.96-116.053 5.12-6.827 3.413-17.067-1.707-23.893l-39.253-44.373c-6.827-8.533-6.827-20.48 1.707-27.307l44.373-44.373c8.533-6.827 20.48-8.533 27.307 0l44.373 40.96c6.827 6.827 17.067 6.827 23.893 3.413 37.547-22.187 78.507-35.84 122.88-40.96 8.533-1.707 15.36-6.827 17.067-17.067l11.947-58.027c1.707-10.24 11.947-17.067 22.187-17.067l61.44 8.533c10.24 1.707 18.773 11.947 17.067 22.187l-5.12 59.733c0 8.533 5.12 17.067 11.947 20.48 39.253 15.36 73.387 39.253 102.4 68.267 6.827 6.827 15.36 8.533 23.893 3.413l52.907-27.307c10.24-5.12 22.187-1.707 27.307 6.827l32.427 52.907c5.12 8.533 3.413 22.187-6.827 27.307l-49.493 34.133c-6.827 5.12-10.24 13.653-8.533 22.187 18.773 39.253 23.893 83.627 17.067 128zM402.773 215.893c-58.027-8.533-112.64 32.427-121.173 90.453s32.427 112.64 90.453 121.173c58.027 8.533 112.64-32.427 121.173-90.453 8.533-59.733-30.72-112.64-90.453-121.173zM994.987 804.693l-40.96-3.413c-6.827 0-11.947 1.707-15.36 8.533-15.36 27.307-35.84 47.787-61.44 63.147-5.12 3.413-8.533 10.24-8.533 15.36l5.12 40.96c1.707 8.533-5.12 15.36-13.653 17.067l-68.267 13.653c-8.533 1.707-17.067-3.413-18.773-11.947l-10.24-40.96c-1.707-6.827-6.827-10.24-11.947-11.947-13.653-3.413-29.013-6.827-42.667-13.653-11.947-6.827-23.893-15.36-35.84-23.893-5.12-3.413-11.947-5.12-17.067-1.707l-37.547 17.067c-8.533 3.413-17.067 0-20.48-6.827l-32.427-61.44c-3.413-6.827-1.707-17.067 5.12-20.48l35.84-22.187c5.12-3.413 8.533-10.24 6.827-15.36-3.413-29.013 0-58.027 11.947-87.040 1.707-5.12 1.707-11.947-3.413-17.067l-27.307-30.72c-5.12-6.827-5.12-15.36 0-22.187l49.493-51.2c5.12-6.827 15.36-6.827 22.187-1.707l30.72 27.307c5.12 3.413 11.947 5.12 17.067 1.707 27.307-11.947 56.32-17.067 85.333-15.36 6.827 0 11.947-1.707 15.36-8.533l20.48-35.84c3.413-6.827 13.653-10.24 20.48-6.827l63.147 30.72c6.827 3.413 10.24 11.947 8.533 20.48l-15.36 37.547c-1.707 5.12-1.707 11.947 3.413 17.067 20.48 22.187 34.133 49.493 40.96 76.8 1.707 6.827 6.827 11.947 11.947 11.947l40.96 8.533c8.533 1.707 13.653 10.24 11.947 17.067l-10.24 69.973c0 10.24-6.827 17.067-15.36 15.36zM819.2 657.92c-37.547-18.773-81.92-1.707-98.987 34.133-18.773 37.547-1.707 81.92 34.133 98.987 37.547 18.773 81.92 1.707 98.987-34.133 17.067-37.547 1.707-81.92-34.133-98.987z" />
<glyph unicode="&#xe608;" d="M191.147 540.16v0 10.24c0 10.24 8.533 18.773 18.773 18.773h114.347c10.24 0 17.067-6.827 18.773-17.067v-11.947h329.387v11.947c1.707 10.24 8.533 17.067 18.773 17.067h114.347c10.24 0 18.773-8.533 18.773-18.773v-10.24h199.68v81.92c0 69.973-56.32 126.293-126.293 126.293h-225.28v83.627c0 22.187-18.773 40.96-40.96 40.96h-247.467c-22.187 0-40.96-18.773-40.96-40.96v-81.92h-216.747c-69.973 0-126.293-56.32-126.293-126.293v-81.92h191.147zM401.067 789.333c0 15.36 11.947 25.6 25.6 25.6h160.427c15.36 0 25.6-11.947 25.6-25.6v-39.253h-211.627v39.253zM826.027 502.613v-17.067c0-10.24-8.533-18.773-18.773-18.773h-114.347c-10.24 0-17.067 6.827-18.773 17.067v18.773h-331.093v-18.773c-1.707-10.24-8.533-17.067-18.773-17.067h-114.347c-10.24 0-18.773 8.533-18.773 18.773v17.067h-191.147v-315.733c0-69.973 56.32-126.293 126.293-126.293h771.413c69.973 0 126.293 56.32 126.293 126.293v314.027h-197.973z" />
<glyph unicode="&#xe609;" d="M58.027 345.6c0 0-233.813 718.507 931.84 602.453 0 0 197.973-878.933-691.2-820.907 0 0-78.507-262.827-249.173-172.373-145.067 76.8 204.8 488.107 474.453 665.6 11.947 6.827 3.413 25.6-10.24 20.48-97.28-34.133-271.36-114.347-455.68-295.253z" />
<glyph unicode="&#xe60a;" d="M786.773 429.227v503.467c0 20.48-22.187 34.133-39.253 23.893-58.027-32.427-100.693-129.707-100.693-244.053 0-78.507 20.48-150.187 52.907-196.267 3.413-5.12 5.12-10.24 5.12-15.36v-69.973c-23.893-13.653-40.96-40.96-40.96-69.973v-339.627c0-46.080 37.547-81.92 81.92-81.92 46.080 0 81.92 37.547 81.92 81.92v337.92c0 29.013-17.067 56.32-40.96 69.973zM467.627 929.28h-51.2v-249.173h-52.907v249.173h-51.2v-249.173h-52.907v249.173h-54.613v-279.893c0-40.96 37.547-75.093 88.747-87.040v-145.067c-23.893-13.653-40.96-40.96-40.96-69.973v-327.68c0-46.080 37.547-81.92 81.92-81.92s81.92 37.547 81.92 81.92v325.973c0 30.72-17.067 56.32-40.96 69.973v145.067c51.2 11.947 88.747 46.080 88.747 87.040v0 281.6z" />
<glyph unicode="&#xe60b;" d="M993.28 506.027c-61.44 199.68-133.12 361.813-319.147 298.667-11.947-3.413-66.56-29.013-109.227-49.493-34.133-15.36-73.387-15.36-107.52 0-42.667 20.48-98.987 44.373-109.227 49.493-187.733 63.147-259.413-98.987-320.853-298.667s-17.067-390.827 97.28-426.667c90.453-27.307 199.68 49.493 271.36 184.32h230.4c71.68-133.12 180.907-211.627 271.36-184.32 112.64 35.84 157.013 226.987 95.573 426.667zM445.44 519.68c0-22.187-18.773-39.253-39.253-39.253h-66.56v-66.56c0-22.187-18.773-40.96-40.96-40.96s-42.667 17.067-42.667 40.96v66.56h-66.56c-22.187 0-39.253 18.773-39.253 39.253 0 22.187 18.773 39.253 39.253 39.253h66.56v66.56c0 22.187 18.773 40.96 40.96 40.96s40.96-18.773 40.96-40.96v-66.56h66.56c22.187 0 40.96-17.067 40.96-39.253zM669.013 415.573c-27.307 0-49.493 22.187-49.493 49.493s22.187 49.493 49.493 49.493c27.307 0 49.493-22.187 49.493-49.493 1.707-27.307-22.187-49.493-49.493-49.493zM773.12 543.573c-27.307 0-49.493 22.187-49.493 49.493s22.187 49.493 49.493 49.493c27.307 0 49.493-22.187 49.493-49.493s-22.187-49.493-49.493-49.493z" />
<glyph unicode="&#xe60c;" d="M283.307 331.947c-15.36 10.24-37.547 3.413-46.080-11.947l-29.013-49.493c-6.827-10.24-5.12-23.893 0-34.133 0 0 0 0 0 0 3.413-5.12 29.013-22.187 32.427-23.893 199.68-102.4 445.44-32.427 559.787 162.133 119.467 201.387 51.2 462.507-150.187 580.267-17.067 10.24-37.547 5.12-47.787-11.947l-30.72-51.2c-8.533-17.067-3.413-37.547 11.947-47.787 17.067-8.533 37.547-3.413 47.787 11.947l10.24 18.773c136.533-100.693 184.32-315.733 97.28-464.213s-298.667-211.627-452.267-141.653l10.24 17.067c8.533 15.36 1.707 37.547-13.653 46.080zM474.453 128.853v47.787c0 6.827-5.12 11.947-11.947 11.947h-39.253c-6.827 0-11.947-5.12-11.947-11.947v-47.787c-112.64-8.533-203.093-63.147-216.747-133.12 0-56.32 0-56.32 71.68-56.32h354.987c71.68 0 71.68 0 71.68 56.32-15.36 68.267-104.107 124.587-218.453 133.12zM715.093 587.947c0-150.811-122.256-273.067-273.067-273.067s-273.067 122.256-273.067 273.067c0 150.811 122.256 273.067 273.067 273.067s273.067-122.256 273.067-273.067z" />
<glyph unicode="&#xe60d;" d="M979.627 743.253c-37.547 54.613-97.28 90.453-162.133 100.693-232.107 40.96-305.493-131.413-305.493-131.413s-73.387 172.373-305.493 131.413c-64.853-11.947-124.587-46.080-162.133-100.693-58.027-83.627-56.32-191.147-3.413-300.373l35.84-63.147c83.627-124.587 230.4-247.467 435.2-336.213 204.8 88.747 351.573 211.627 435.2 336.213l35.84 63.147c52.907 109.227 54.613 216.747-3.413 300.373zM808.96 340.48c-27.307 0-49.493 17.067-59.733 39.253h-93.867c-15.36 0-27.307 10.24-30.72 23.893l-10.24 42.667-76.8-226.987c-5.12-13.653-17.067-22.187-30.72-22.187 0 0-1.707 0-1.707 0-13.653 0-25.6 10.24-29.013 25.6l-59.733 279.893-30.72-102.4c-3.413-13.653-17.067-22.187-30.72-22.187h-88.747c-10.24-23.893-32.427-39.253-59.733-39.253-35.84 0-64.853 29.013-64.853 64.853s29.013 64.853 64.853 64.853c22.187 0 40.96-10.24 52.907-27.307h71.68l61.44 197.973c3.413 13.653 17.067 23.893 32.427 22.187 13.653 0 27.307-10.24 29.013-25.6l61.44-286.72 75.093 221.867c5.12 13.653 17.067 22.187 30.72 22.187s25.6-10.24 29.013-23.893l30.72-126.293h75.093c11.947 17.067 30.72 27.307 52.907 27.307 35.84 0 64.853-29.013 64.853-64.853s-29.013-64.853-64.853-64.853z" />
<glyph unicode="&#xe60e;" d="M853.333 960h-682.667c-34.133 0-61.44-27.307-61.44-61.44v-899.413c0-34.133 27.307-61.44 61.44-61.44h682.667c34.133 0 61.44 27.307 61.44 61.44v899.413c0 34.133-27.307 61.44-61.44 61.44zM327.68 70.827c0-13.653-10.24-25.6-25.6-25.6h-46.080c-13.653 0-25.6 10.24-25.6 25.6v46.080c0 13.653 10.24 25.6 25.6 25.6h46.080c13.653 0 25.6-11.947 25.6-25.6v-46.080zM327.68 263.68c0-13.653-10.24-25.6-25.6-25.6h-46.080c-13.653 0-25.6 10.24-25.6 25.6v47.787c0 13.653 10.24 25.6 25.6 25.6h46.080c13.653 0 25.6-10.24 25.6-25.6v-47.787zM327.68 456.533c0-13.653-10.24-25.6-25.6-25.6h-46.080c-13.653 0-25.6 11.947-25.6 25.6v46.080c0 13.653 10.24 25.6 25.6 25.6h46.080c13.653 0 25.6-10.24 25.6-25.6v-46.080zM484.693 70.827c0-13.653-10.24-25.6-25.6-25.6h-46.080c-13.653 0-25.6 10.24-25.6 25.6v46.080c0 13.653 10.24 25.6 25.6 25.6h46.080c13.653 0 25.6-11.947 25.6-25.6v-46.080zM484.693 263.68c0-13.653-10.24-25.6-25.6-25.6h-46.080c-13.653 0-25.6 10.24-25.6 25.6v47.787c0 13.653 10.24 25.6 25.6 25.6h46.080c13.653 0 25.6-10.24 25.6-25.6v-47.787zM484.693 456.533c0-13.653-10.24-25.6-25.6-25.6h-46.080c-13.653 0-25.6 11.947-25.6 25.6v46.080c0 13.653 10.24 25.6 25.6 25.6h46.080c13.653 0 25.6-10.24 25.6-25.6v-46.080zM636.587 70.827c0-13.653-10.24-25.6-25.6-25.6h-46.080c-13.653 0-25.6 10.24-25.6 25.6v46.080c0 13.653 10.24 25.6 25.6 25.6h46.080c13.653 0 25.6-11.947 25.6-25.6v-46.080zM636.587 263.68c0-13.653-10.24-25.6-25.6-25.6h-46.080c-13.653 0-25.6 10.24-25.6 25.6v47.787c0 13.653 10.24 25.6 25.6 25.6h46.080c13.653 0 25.6-10.24 25.6-25.6v-47.787zM636.587 456.533c0-13.653-10.24-25.6-25.6-25.6h-46.080c-13.653 0-25.6 11.947-25.6 25.6v46.080c0 13.653 10.24 25.6 25.6 25.6h46.080c13.653 0 25.6-10.24 25.6-25.6v-46.080zM793.6 70.827c0-13.653-10.24-25.6-25.6-25.6h-46.080c-13.653 0-25.6 10.24-25.6 25.6v242.347c0 13.653 10.24 25.6 25.6 25.6h46.080c13.653 0 25.6-10.24 25.6-25.6v-242.347zM793.6 456.533c0-13.653-10.24-25.6-25.6-25.6h-46.080c-13.653 0-25.6 11.947-25.6 25.6v46.080c0 13.653 10.24 25.6 25.6 25.6h46.080c13.653 0 25.6-10.24 25.6-25.6v-46.080zM793.6 661.333c0-13.653-10.24-25.6-25.6-25.6h-512c-13.653 0-25.6 10.24-25.6 25.6v170.667c0 13.653 11.947 25.6 25.6 25.6h512c13.653 0 25.6-10.24 25.6-25.6v-170.667z" />
<glyph unicode="&#xe60f;" d="M453.973 38.4c-71.68 0-131.413 58.027-131.413 131.413 0 71.68 58.027 131.413 131.413 131.413v0c8.533 0 15.36 6.827 15.36 15.36v75.093c0 8.533-6.827 15.36-15.36 15.36h-134.827c-11.947 0-18.773 11.947-13.653 22.187 6.827 15.36 10.24 32.427 6.827 51.2-5.12 32.427-30.72 58.027-63.147 63.147-51.2 10.24-95.573-29.013-95.573-78.507 0-11.947 3.413-23.893 8.533-35.84 5.12-10.24-1.707-22.187-13.653-22.187h-133.12c-8.533 0-15.36-6.827-15.36-15.36v-438.613c0-10.24 6.827-17.067 15.36-17.067h438.613c8.533 0 15.36 6.827 15.36 15.36v71.68c0 8.533-6.827 15.36-15.36 15.36v0zM542.72 802.987c-18.773 3.413-35.84 0-51.2-6.827-10.24-5.12-22.187 1.707-22.187 13.653v134.827c0 8.533-6.827 15.36-15.36 15.36h-438.613c-8.533 0-15.36-6.827-15.36-15.36v-438.613c0-8.533 6.827-15.36 15.36-15.36h73.387c8.533 0 15.36 6.827 15.36 15.36v0c0 71.68 58.027 131.413 131.413 131.413 71.68 0 131.413-58.027 131.413-131.413v0c0-8.533 6.827-15.36 15.36-15.36h73.387c8.533 0 15.36 6.827 15.36 15.36v134.827c0 11.947 11.947 18.773 22.187 13.653s22.187-8.533 35.84-8.533c49.493 0 88.747 44.373 78.507 95.573-6.827 30.72-32.427 56.32-64.853 61.44zM935.253 405.333c-8.533 0-15.36-6.827-15.36-15.36 0 0 0 0 0 0 0-71.68-58.027-131.413-131.413-131.413-71.68 0-131.413 58.027-131.413 131.413v0c0 8.533-6.827 15.36-15.36 15.36h-73.387c-8.533 0-15.36-6.827-15.36-15.36v-134.827c0-11.947-11.947-18.773-22.187-13.653-15.36 6.827-32.427 10.24-51.2 6.827-32.427-5.12-58.027-30.72-63.147-63.147-10.24-51.2 29.013-95.573 78.507-95.573 11.947 0 23.893 3.413 35.84 8.533 10.24 5.12 22.187-1.707 22.187-13.653v-133.12c0-8.533 6.827-15.36 15.36-15.36h438.613c8.533 0 15.36 6.827 15.36 15.36v438.613c0 8.533-6.827 15.36-15.36 15.36h-71.68z" />
<glyph unicode="&#xe610;" d="M349.867 372.907c-223.573 0-223.573-114.347-223.573-143.36v-93.867c0 0 0-167.253 223.573-167.253 35.84-1.707 35.84 404.48 0 404.48zM672.427 372.907c-37.547 0-37.547-406.187 0-406.187 223.573 0 223.573 167.253 223.573 167.253v93.867c0 30.72 0 145.067-223.573 145.067zM510.293 929.28c-281.6-1.707-510.293-232.107-510.293-513.707 0-274.773 42.667-245.76 69.973-245.76 3.413 0-11.947 136.533 23.893 168.96 0 13.653-8.533 63.147-8.533 76.8 0 235.52 191.147 428.373 426.667 428.373 235.52-1.707 426.667-192.853 426.667-428.373 0-13.653-8.533-63.147-10.24-76.8 34.133-32.427 18.773-168.96 23.893-168.96 27.307 0 69.973-29.013 69.973 245.76 0 281.6-228.693 512-512 513.707z" />
<glyph unicode="&#xe611;" d="M675.84 383.147c0-92.371-74.882-167.253-167.253-167.253s-167.253 74.882-167.253 167.253c0 92.371 74.882 167.253 167.253 167.253s167.253-74.882 167.253-167.253zM901.12 736.427h-453.973l-37.547 80.213c-6.827 11.947-22.187 27.307-39.253 27.307h-271.36c-47.787 0-98.987-47.787-98.987-87.040v-141.653c0 0 0 0 0 0v-443.733c0-66.56 54.613-121.173 121.173-121.173h781.653c66.56 0 121.173 54.613 121.173 121.173v443.733c-1.707 66.56-56.32 121.173-122.88 121.173zM167.253 567.467c-22.187 0-39.253 17.067-39.253 39.253s17.067 39.253 39.253 39.253c22.187 0 39.253-17.067 39.253-39.253s-17.067-39.253-39.253-39.253zM508.587 154.453c-126.293 0-228.693 102.4-228.693 228.693s102.4 228.693 228.693 228.693c126.293 0 228.693-102.4 228.693-228.693s-102.4-228.693-228.693-228.693z" />
<glyph unicode="&#xe612;" d="M151.893 497.493c23.893 20.48 49.493 40.96 76.8 59.733-46.080 44.373-68.267 78.507-73.387 95.573 3.413 1.707 10.24 1.707 22.187 1.707 32.427 0 81.92-10.24 145.067-32.427 23.893 34.133 63.147 56.32 107.52 58.027 1.707 0 1.707 1.707 3.413 1.707-100.693 42.667-191.147 68.267-254.293 68.267-64.853 0-93.867-27.307-107.52-49.493-29.013-51.2-3.413-119.467 80.213-203.093-1.707 1.707-1.707 1.707 0 0zM687.787 545.28c-32.427-13.653-66.56-30.72-102.4-49.493 192.853-117.76 276.48-220.16 285.013-254.293-3.413-1.707-10.24-1.707-22.187-1.707-27.307 0-68.267 6.827-117.76 23.893-6.827 42.667-44.373 76.8-90.453 76.8-20.48 0-39.253-6.827-54.613-18.773-35.84 17.067-73.387 35.84-112.64 59.733-15.36 8.533-29.013 17.067-42.667 25.6-30.72-20.48-59.733-40.96-83.627-61.44 25.6-15.36 51.2-32.427 76.8-47.787 42.667-23.893 83.627-46.080 124.587-64.853 6.827-42.667 44.373-75.093 90.453-75.093 20.48 0 39.253 6.827 54.613 17.067 59.733-18.773 112.64-30.72 153.6-30.72 64.853 0 93.867 27.307 107.52 49.493 29.013 51.2 3.413 119.467-80.213 203.093-47.787 47.787-112.64 98.987-186.027 148.48zM512 861.013c11.947-11.947 30.72-51.2 47.787-116.053 32.427 13.653 61.44 23.893 90.453 32.427-25.6 102.4-69.973 182.613-138.24 182.613s-112.64-78.507-138.24-180.907c29.013-8.533 59.733-20.48 90.453-32.427 17.067 63.147 35.84 100.693 47.787 114.347zM554.667 132.267c-15.36-52.907-30.72-87.040-42.667-97.28-11.947 11.947-32.427 51.2-47.787 116.053-32.427-13.653-61.44-23.893-90.453-32.427 25.6-104.107 69.973-182.613 138.24-182.613 64.853 0 107.52 71.68 134.827 168.96-1.707 0-5.12 0-6.827 0-32.427-1.707-61.44 10.24-85.333 27.307zM372.053 243.2c-17.067 10.24-32.427 18.773-47.787 29.013-63.147-22.187-116.053-34.133-148.48-34.133-10.24 0-17.067 1.707-22.187 1.707 8.533 30.72 76.8 117.76 232.107 220.16 13.653-8.533 30.72-15.36 49.493-15.36 51.2 0 92.16 40.96 92.16 92.16 0 1.707 0 3.413 0 6.827 143.36 75.093 261.12 109.227 319.147 109.227 10.24 0 17.067-1.707 22.187-1.707-3.413-17.067-27.307-51.2-73.387-95.573 27.307-20.48 52.907-40.96 76.8-59.733 0 0 1.707 1.707 1.707 1.707 83.627 85.333 110.933 155.307 81.92 206.507-13.653 22.187-42.667 49.493-107.52 49.493-88.747 0-230.4-47.787-377.173-128-10.24 5.12-22.187 6.827-34.133 6.827-47.787 0-85.333-35.84-90.453-81.92-76.8-51.2-145.067-104.107-196.267-155.307-83.627-83.627-110.933-151.893-81.92-203.093 13.653-22.187 42.667-49.493 107.52-49.493 63.147 0 153.6 25.6 254.293 68.267-18.773 10.24-37.547 22.187-58.027 32.427z" />
<glyph unicode="&#xe613;" d="M1010.347 644.267l-467.627 143.36c-6.827 1.707-13.653 1.707-20.48 0l-469.333-143.36c-18.773-5.12-18.773-32.427 0-37.547l146.773-44.373c-11.947-15.36-23.893-34.133-32.427-58.027-20.48-5.12-34.133-22.187-34.133-44.373 0-13.653 5.12-25.6 15.36-34.133-20.48-92.16-59.733-175.787-141.653-244.053-8.533-6.827-8.533-20.48-1.707-29.013 29.013-27.307 95.573-76.8 145.067-18.773 63.147 73.387 40.96 211.627 49.493 285.013 13.653 8.533 22.187 22.187 22.187 39.253 0 10.24-3.413 20.48-8.533 27.307 10.24 32.427 20.48 42.667 39.253 58.027 1.707 1.707 3.413 3.413 5.12 5.12 39.253 35.84 116.053 75.093 269.653 98.987 13.653 1.707 25.6-6.827 27.307-20.48s-6.827-25.6-20.48-27.307c-126.293-17.067-192.853-46.080-226.987-69.973l215.040-64.853c6.827-1.707 13.653-1.707 20.48 0l467.627 143.36c18.773 3.413 18.773 30.72 0 35.84zM771.413 485.547l-228.693-69.973c-6.827-1.707-13.653-1.707-20.48 0l-228.693 69.973-29.013-92.16c0 0-64.853-186.027 267.947-186.027s267.947 186.027 267.947 186.027l-29.013 92.16z" />
<glyph unicode="&#xe614;" d="M1015.467 746.667l-90.453-90.453-88.747 22.187-20.48 90.453 88.747 88.747c-15.36 5.12-32.427 6.827-49.493 6.827-93.867 0-168.96-75.093-168.96-168.96 0-11.947 1.707-22.187 3.413-34.133l-148.48-148.48-119.467 119.467c-34.133 34.133-40.96 88.747-11.947 128 25.6 34.133 80.213 68.267 192.853 85.333v42.667c0 0-247.467 15.36-366.933-104.107l-150.187-145.067c-25.6 6.827-52.907-1.707-69.973-23.893-22.187-27.307-18.773-68.267 6.827-93.867l59.733-59.733c25.6-25.6 64.853-29.013 93.867-6.827 22.187 17.067 30.72 46.080 23.893 69.973l34.133 34.133 175.787-175.787-220.16-220.16c-35.84-35.84-35.84-95.573 0-131.413s95.573-35.84 131.413 0l500.053 500.053c10.24-1.707 22.187-3.413 34.133-3.413 93.867 0 168.96 75.093 168.96 168.96-1.707 17.067-3.413 34.133-8.533 49.493zM713.387 342.187l-131.413-131.413 175.787-175.787c32.427-32.427 85.333-39.253 122.88-11.947 47.787 34.133 51.2 100.693 11.947 141.653l-179.2 177.493z" />
<glyph unicode="&#xe615;" d="M1022.293 166.4v71.68h-281.6v283.307c11.947 1.707 25.6 1.707 40.96 1.707h151.893v75.093h-182.613c-209.92-8.533-240.64-129.707-273.067-221.867l-5.12-13.653c-25.6-69.973-8.533-114.347 10.24-138.24 42.667-54.613 126.293-61.44 172.373-61.44 3.413 0 6.827 0 10.24 0v-66.56c0-5.12-1.707-47.787 32.427-83.627 29.013-29.013 69.973-44.373 122.88-44.373 59.733 0 109.227 18.773 143.36 54.613 59.733 58.027 58.027 143.36 58.027 143.36zM667.307 238.080c-47.787 1.707-104.107 10.24-121.173 32.427-10.24 13.653-10.24 35.84 0 64.853l5.12 13.653c23.893 64.853 40.96 126.293 116.053 155.307v-266.24zM911.36 75.947c-20.48-20.48-49.493-30.72-88.747-30.72-75.093 0-81.92 39.253-81.92 51.2v68.267h203.093c0-6.827 0-56.32-32.427-88.747zM469.333 929.28c-257.707 0-467.627-209.92-467.627-467.627 0-56.32 20.48-114.347 40.96-170.667 18.773-59.733 13.653-133.12 13.653-133.12h66.56c52.907 0 104.107-17.067 146.773-47.787 76.8-56.32 216.747-124.587 325.973 18.773v0c-56.32 3.413-131.413 17.067-174.080 71.68-8.533 11.947-15.36 29.013-18.773 52.907 0 6.827-6.827 8.533-11.947 5.12-17.067-11.947-39.253-17.067-61.44-11.947-32.427 6.827-58.027 32.427-63.147 63.147-10.24 52.907 29.013 97.28 80.213 97.28 25.6 0 47.787-11.947 63.147-30.72 3.413-5.12 11.947-3.413 13.653 3.413 18.773 61.44 98.987 273.067 332.8 278.187v1.707h139.947c-76.8 158.72-238.933 269.653-426.667 269.653z" />
<glyph unicode="&#xe616;" d="M199.68 451.413c0 122.88 78.507 228.693 186.027 269.653l-46.080 71.68c-1.707 3.413-5.12 6.827-6.827 11.947l-18.773-11.947c-5.12-3.413-11.947-5.12-17.067-5.12-11.947 0-22.187 6.827-29.013 17.067-6.827 15.36-1.707 32.427 13.653 42.667l165.547 105.813c17.067 10.24 39.253 5.12 46.080-13.653 6.827-15.36 0-32.427-13.653-40.96l-18.773-13.653c3.413-3.413 5.12-6.827 8.533-10.24l165.547-257.707 17.067 11.947c13.653 8.533 32.427 6.827 42.667-5.12 13.653-15.36 10.24-37.547-6.827-47.787l-18.773-11.947-129.707-83.627-18.773-11.947c-5.12-3.413-11.947-5.12-17.067-5.12-11.947 0-23.893 6.827-29.013 18.773-6.827 15.36 0 32.427 13.653 40.96l17.067 10.24-56.32 87.040c-78.507-17.067-138.24-87.040-138.24-170.667 0-73.387 46.080-136.533 109.227-162.133h343.040c34.133 0 63.147-29.013 61.44-63.147-3.413-32.427-30.72-51.2-63.147-51.2h-237.227v-98.987c71.68-11.947 128-51.2 136.533-97.28 0-42.667 0-42.667-54.613-42.667h-266.24c-54.613 0-54.613 0-54.613 42.667 10.24 46.080 64.853 85.333 136.533 97.28v100.693c0 0 0 1.707 0 1.707-211.627 27.307-221.867 218.453-221.867 274.773z" />
<glyph unicode="&#xe617;" d="M508.587 151.040c8.533 15.36 59.733-10.24 54.613-18.773-3.413-5.12-11.947-23.893-11.947-23.893-10.24-18.773-3.413-42.667 15.36-52.907l71.68-39.253c18.773-10.24 42.667-3.413 52.907 15.36l22.187 40.96c1.707 3.413 1.707 3.413 6.827 10.24 6.827 11.947 56.32-11.947 52.907-22.187-5.12-8.533 0 0 0 0l-39.253-69.973c-17.067-32.427-58.027-44.373-92.16-27.307l-122.88 66.56c-32.427 17.067-44.373 58.027-27.307 92.16 1.707 0 11.947 18.773 17.067 29.013zM971.093 340.48c-527.36 247.467-450.56 459.093-491.52 554.667-83.627-42.667-194.56-174.080-274.773-336.213-80.213-163.84-102.4-332.8-80.213-423.253 69.973 32.427 162.133 110.933 365.227 78.507 42.667-6.827 261.12-78.507 315.733-100.693 0 0 34.133-13.653 44.373-17.067 54.613-25.6 131.413 23.893 158.72 76.8 25.6 51.2 15.36 141.653-37.547 167.253zM175.787 582.827c83.627 167.253 199.68 302.080 285.013 341.333-5.12 5.12-11.947 8.533-18.773 11.947-76.8 35.84-235.52-122.88-341.333-336.213s-133.12-433.493-58.027-469.333c17.067-8.533 32.427-8.533 49.493-5.12-42.667 71.68-10.24 266.24 83.627 457.387z" />
<glyph unicode="&#xe618;" d="M327.68 367.787c13.653-8.533 29.013 6.827 22.187 20.48l-107.52 192.853h-221.867c-15.36 0-22.187-20.48-8.533-29.013l56.32-32.427-51.2-87.040c-20.48-35.84-18.773-80.213 5.12-112.64l133.12-182.613c5.12 49.493 20.48 97.28 46.080 141.653l71.68 122.88 54.613-34.133zM257.707 277.333c0 0-15.36-27.307-32.427-54.613-23.893-40.96-30.72-88.747-22.187-136.533l10.24-47.787 271.36 1.707-1.707 237.227h-225.28zM858.453 789.333c8.533 13.653-5.12 29.013-20.48 22.187l-58.027-29.013-44.373 90.453c-18.773 37.547-56.32 59.733-97.28 58.027l-225.28-13.653c39.253-30.72 69.973-71.68 92.16-116.053l63.147-126.293-56.32-29.013c-13.653-6.827-10.24-29.013 5.12-29.013l221.867-15.36 119.467 187.733zM474.453 753.493c0 0-13.653 27.307-29.013 56.32-22.187 42.667-58.027 75.093-102.4 92.16l-46.080 17.067-146.773-226.987 199.68-128 124.587 189.44zM680.96 284.16v64.853c0 15.36-20.48 22.187-29.013 8.533l-114.347-189.44 110.933-192.853c8.533-13.653 29.013-8.533 29.013 6.827v64.853l100.693-1.707c40.96 0 78.507 23.893 95.573 61.44l93.867 206.507c-46.080-20.48-95.573-30.72-145.067-29.013h-141.653zM887.467 649.387l-206.507-119.467 114.347-196.267c0 0 30.72 0 63.147 0 47.787 0 93.867 17.067 128 49.493l35.84 32.427-134.827 233.813z" />
<glyph unicode="&#xe619;" d="M877.227 925.867h-730.453c-80.213 0-146.773-64.853-146.773-146.773v-486.4c0-80.213 66.56-146.773 146.773-146.773h199.68v-90.453h-121.173c-23.893 0-42.667-18.773-42.667-42.667s18.773-42.667 42.667-42.667h576.853c23.893 0 42.667 18.773 42.667 42.667s-18.773 42.667-42.667 42.667h-122.88v90.453h197.973c80.213 0 146.773 66.56 146.773 146.773v486.4c1.707 81.92-64.853 146.773-146.773 146.773zM931.84 282.453c0-23.893-20.48-44.373-44.373-44.373h-749.227c-23.893 0-44.373 20.48-44.373 44.373v505.173c0 23.893 20.48 44.373 44.373 44.373h749.227c23.893 0 44.373-20.48 44.373-44.373v-505.173zM194.56 770.56h570.027c29.013 0 40.96-37.547 17.067-52.907l-570.027-387.413c-18.773-13.653-46.080 0-46.080 23.893v387.413c0 17.067 13.653 29.013 29.013 29.013z" />
</font>
</defs>
</svg>
